<?xml version="1.0" encoding="utf-8"?>
<!-- Generator: Adobe Illustrator 15.1.0, SVG Export Plug-In . SVG Version: 6.00 Build 0)  -->
<!DOCTYPE svg PUBLIC "-//W3C//DTD SVG 1.1//EN" "http://www.w3.org/Graphics/SVG/1.1/DTD/svg11.dtd">
<svg version="1.1" id="Layer_2" xmlns="http://www.w3.org/2000/svg" xmlns:xlink="http://www.w3.org/1999/xlink" x="0px" y="0px"
	 width="595.28px" height="841.89px" viewBox="0 0 595.28 841.89" enable-background="new 0 0 595.28 841.89" xml:space="preserve">
<g>
	<path fill="#533C2A" d="M126.407,620.394c0,0,4.424,48.349,0,55.938c-4.426,7.59-42.67,24.457-38.877,32.609
		c3.792,8.15,16.198,8.431,18.095,8.22c-1.659,5.062-0.711,14.759,36.744,6.536c37.454-8.223,47.884-15.39,28.684-36.473
		c4.267-6.326,6.399-8.434,5.688-10.33c-0.712-1.899-19.439-11.175-14.697-55.028C151.376,617.651,130.832,614.281,126.407,620.394z
		"/>
	<path d="M118.863,727.924c0,0,0,0-0.002,0c-6.927,0-11.476-1.434-13.521-4.255c-1.086-1.498-1.445-3.355-1.062-5.431
		c-2.38-0.045-13.886-0.686-17.689-8.86c-2.649-5.693,9.509-13.32,22.382-21.393c7.317-4.592,14.882-9.336,16.539-12.177
		c3.493-5.99,1.085-41.964-0.137-55.32l-0.035-0.389l0.229-0.314c1.809-2.5,5.821-3.768,11.927-3.768
		c8.641,0,18.98,2.531,24.931,4.883l0.737,0.29l-0.085,0.787c-4.026,37.24,8.893,48.995,13.137,52.857
		c0.847,0.771,1.314,1.197,1.501,1.694c0.734,1.96-0.478,3.672-3.13,7.428c-0.646,0.914-1.386,1.963-2.215,3.177
		c7.657,8.55,10.338,14.703,8.69,19.89c-2.633,8.275-16.671,12.902-38.466,17.688C132.884,726.843,124.901,727.924,118.863,727.924z
		 M107.116,715.949l-0.503,1.537c-0.659,2.008-0.521,3.68,0.41,4.964c1.608,2.221,5.703,3.396,11.838,3.396c0.001,0,0.002,0,0.003,0
		c5.887,0,13.721-1.063,23.281-3.163c20.489-4.498,34.611-8.989,36.933-16.292c1.418-4.455-1.377-10.324-8.793-18.467l-0.551-0.605
		l0.457-0.674c1.024-1.521,1.927-2.797,2.696-3.889c2.083-2.945,3.229-4.57,2.88-5.497c-0.061-0.077-0.535-0.508-0.953-0.887
		c-4.406-4.011-17.755-16.159-13.888-53.822c-5.862-2.197-15.41-4.456-23.433-4.456c-4.976,0-8.504,0.928-10.014,2.621
		c0.454,5.079,4.192,48.65-0.174,56.14c-1.914,3.283-9.013,7.734-17.231,12.889c-9.909,6.215-23.478,14.725-21.602,18.758
		c3.465,7.447,14.826,7.663,16.109,7.663c0.417,0,0.735-0.014,0.93-0.036L107.116,715.949z"/>
</g>
<g>
	<path fill="#54463A" d="M125.774,693.128c-4.898-1.053-9.165-6.21-15.104-4.982c-12.393,7.884-25.686,15.323-23.14,20.796
		c3.792,8.15,16.198,8.431,18.095,8.22c-1.659,5.062-0.711,14.759,36.744,6.536c37.454-8.223,45.513-16.276,31.896-32.729
		C171.658,697.295,131.464,703.599,125.774,693.128z"/>
	<path d="M118.861,727.924c-6.927,0-11.476-1.431-13.521-4.255c-1.086-1.498-1.445-3.355-1.062-5.431
		c-2.38-0.045-13.886-0.686-17.689-8.86c-2.647-5.688,7.543-12.076,19.342-19.474c1.39-0.871,2.792-1.75,4.182-2.635l0.348-0.141
		c0.671-0.139,1.355-0.208,2.032-0.208c3.169,0,5.815,1.479,8.374,2.91c1.761,0.983,3.426,1.916,5.126,2.28l0.467,0.103l0.229,0.419
		c1.742,3.208,7.94,5.049,17.004,5.049c13.744,0,28.335-4.006,29.612-7.109l0.658-1.599l1.104,1.332
		c5.59,6.755,7.469,12.011,5.909,16.539c-2.498,7.255-13.619,12.431-38.382,17.866C132.884,726.844,124.899,727.924,118.861,727.924
		z M107.116,715.949l-0.503,1.537c-0.659,2.008-0.521,3.68,0.41,4.964c3.155,4.354,15.602,4.52,35.123,0.233
		c23.641-5.19,34.665-10.13,36.865-16.517c1.228-3.562-0.271-7.876-4.715-13.51c-4.147,4.031-19.09,7.102-30.604,7.102
		c-6.874,0-15.578-1.007-18.587-5.723c-1.838-0.481-3.571-1.451-5.252-2.393c-2.748-1.536-5.691-3.084-8.791-2.516
		c-1.339,0.851-2.689,1.698-4.027,2.535c-10.047,6.3-20.435,12.814-18.562,16.839c3.465,7.447,14.826,7.663,16.109,7.663
		c0.417,0,0.735-0.014,0.93-0.036L107.116,715.949z"/>
</g>
<g>
	<path d="M106.599,717.522l-1.947-0.724c0.32-0.866,7.999-21.274,20.857-24.675l0.531,2.008
		C114.224,697.257,106.674,717.319,106.599,717.522z"/>
</g>
<g>
	<path fill="#533C2A" d="M534.337,629.478c0,0,4.849,59.553,0,68.901s-46.742,30.124-42.588,40.165
		c4.154,10.04,17.743,10.385,19.82,10.125c-1.816,6.232-0.778,18.178,40.251,8.051c41.029-10.128,52.455-18.957,31.422-44.925
		c4.673-7.791,7.011-10.388,6.231-12.725s-21.293-13.764-16.1-67.776C561.688,626.101,539.186,621.949,534.337,629.478z"/>
	<path d="M526.073,761.684c0,0-0.002,0-0.004,0c-7.231,0-12.092-1.592-14.446-4.732c-1.441-1.922-1.909-4.387-1.382-7.192
		c-2.237-0.028-15.239-0.639-19.452-10.816c-2.797-6.759,11.056-16.529,24.453-25.977c8.399-5.924,16.333-11.521,18.172-15.066
		c3.726-7.184,1.556-47.842-0.111-68.336l-0.029-0.351l0.19-0.297c1.96-3.043,6.338-4.586,13.017-4.586
		c9.468,0,20.797,3.117,27.315,6.015l0.683,0.304l-0.07,0.745c-4.426,46.039,9.793,60.583,14.466,65.363
		c0.905,0.925,1.401,1.434,1.586,1.985c0.748,2.244-0.552,4.313-3.399,8.846c-0.741,1.178-1.595,2.537-2.555,4.121
		c8.669,10.841,11.579,18.552,9.434,24.944c-3.275,9.753-18.449,15.292-41.869,21.074
		C541.435,760.353,532.689,761.684,526.073,761.684z M513.011,747.441l-0.443,1.518c-0.556,1.902-0.88,4.615,0.716,6.746
		c1.942,2.59,6.243,3.901,12.788,3.901h0.002c6.447,0,15.025-1.311,25.497-3.896c22.107-5.457,37.438-10.898,40.398-19.72
		c1.908-5.676-1.121-13.157-9.535-23.542l-0.456-0.564l0.373-0.624c1.12-1.867,2.108-3.438,2.951-4.779
		c2.413-3.84,3.625-5.77,3.186-7.083c-0.081-0.147-0.622-0.702-1.099-1.19c-4.814-4.924-19.409-19.855-15.121-66.262
		c-6.408-2.724-16.943-5.539-25.787-5.539c-5.611,0-9.429,1.16-11.079,3.357c0.44,5.518,4.638,59.876-0.142,69.094
		c-2.073,3.994-9.835,9.468-18.821,15.806c-11.534,8.136-25.891,18.26-23.729,23.482c3.836,9.269,16.309,9.536,17.717,9.536
		c0.456,0,0.803-0.018,1.014-0.044L513.011,747.441z"/>
</g>
<g>
	<path fill="#54463A" d="M533.643,719.065c-5.364-1.297-11.053-2.254-16.546-6.137c-13.577,9.712-28.138,18.875-25.348,25.615
		c4.154,10.04,17.743,10.385,19.82,10.125c-1.816,6.232-0.778,18.178,40.251,8.051c41.029-10.128,49.858-20.048,34.943-40.313
		C583.907,724.198,539.875,731.965,533.643,719.065z"/>
	<path fill="#695949" d="M506.897,735.785c1.599-3.853,4.502-7.016,6.957-10.337c2.652-3.592,5.378-6.989,8.757-9.521
		c-1.848-0.763-3.693-1.711-5.515-2.999c-13.577,9.712-28.138,18.875-25.348,25.615c2.185,5.281,6.975,7.866,11.333,9.104
		C504.199,743.642,505.302,739.636,506.897,735.785z"/>
	<path fill="#695949" d="M578.37,721.835c-4.417,2.413-37.422,9.877-44.397-2.195c-0.391,0.266-0.847,0.486-1.405,0.617
		c-7.076,1.651-11.8,9.133-15.678,14.856c-2.814,4.15-4.188,8.825-5.486,13.568c0.052-0.004,0.126-0.006,0.166-0.013
		c-1.816,6.232-2.923,10.591,38.071,0.324C567.027,744.641,591.627,739.464,578.37,721.835z"/>
	<path d="M526.069,761.684c-7.231,0-12.092-1.592-14.446-4.732c-1.441-1.92-1.909-4.387-1.382-7.192
		c-2.237-0.028-15.239-0.639-19.452-10.816c-2.793-6.751,8.287-14.564,21.122-23.61c1.521-1.075,3.057-2.158,4.581-3.247l0.6-0.431
		l0.604,0.426c4.654,3.292,9.507,4.417,14.199,5.507l2.469,0.585l0.214,0.441c1.963,4.063,8.602,6.302,18.693,6.302
		c15.075,0,31.098-4.996,32.517-8.866l0.665-1.815l1.146,1.558c6.269,8.515,8.247,15.08,6.23,20.657
		c-3.056,8.443-15.544,14.808-41.76,21.279C541.435,760.353,532.688,761.684,526.069,761.684z M513.011,747.441l-0.443,1.518
		c-0.556,1.902-0.88,4.615,0.716,6.746c3.855,5.142,17.198,5.212,38.287,0.006c25.462-6.284,37.515-12.257,40.305-19.971
		c1.668-4.609,0.06-10.193-5.067-17.491c-4.4,4.956-20.861,8.744-33.536,8.744c-10.587,0-17.771-2.49-20.329-7.024l-1.518-0.357
		c-4.688-1.089-9.528-2.214-14.316-5.415c-1.334,0.95-2.672,1.896-4.001,2.83c-11.089,7.821-22.557,15.906-20.398,21.12
		c3.836,9.269,16.309,9.536,17.717,9.536c0.456,0,0.803-0.018,1.014-0.044L513.011,747.441z"/>
</g>
<g>
	<path d="M512.556,748.993l-1.972-0.648c0.35-1.063,8.728-26.1,22.763-30.275l0.593,1.992
		C520.943,723.927,512.64,748.745,512.556,748.993z"/>
</g>
<g>
	<path fill="#533C2A" d="M166.691,602.433c0,0,5.208,66.563,0,77.014c-5.21,10.448-50.229,33.672-45.765,44.894
		c4.464,11.225,19.068,11.609,21.3,11.319c-1.953,6.967-0.837,20.318,43.254,8.998c44.09-11.321,56.369-21.188,33.765-50.215
		c5.024-8.709,7.536-11.609,6.697-14.223c-0.837-2.613-22.882-15.385-17.301-75.758
		C196.085,598.657,171.899,594.017,166.691,602.433z"/>
	<path d="M157.811,750.083c-0.001,0-0.001,0-0.001,0c-7.626,0-12.791-1.712-15.351-5.088c-1.647-2.17-2.176-4.999-1.558-8.24
		c-2.071-0.015-16.368-0.538-20.939-12.031c-2.962-7.441,11.884-18.332,26.24-28.863c9.036-6.628,17.57-12.889,19.561-16.876
		c5.021-10.078-0.056-75.807-0.108-76.471l-0.026-0.338l0.18-0.288c2.089-3.377,6.777-5.089,13.933-5.089
		c10.169,0,22.336,3.483,29.336,6.719l0.666,0.31l-0.067,0.729c-4.763,51.528,10.549,67.821,15.58,73.175
		c0.96,1.023,1.489,1.585,1.676,2.171c0.782,2.439-0.603,4.729-3.636,9.753c-0.812,1.34-1.748,2.891-2.801,4.704
		c9.422,12.235,12.54,20.903,10.103,28.044c-3.658,10.715-19.875,16.845-44.858,23.259
		C174.314,748.597,164.917,750.083,157.811,750.083z M143.65,734.426l-0.423,1.514c-0.62,2.21-0.968,5.355,0.887,7.8
		c2.146,2.831,6.753,4.267,13.694,4.267h0.003c6.931,0,16.155-1.465,27.411-4.356c23.638-6.067,40.065-12.117,43.41-21.918
		c2.193-6.425-1.05-14.896-10.205-26.648l-0.429-0.554l0.349-0.605c1.205-2.088,2.265-3.844,3.171-5.342
		c2.698-4.468,3.93-6.507,3.436-8.046c-0.088-0.186-0.684-0.819-1.211-1.38c-5.166-5.498-20.836-22.173-16.202-74.054
		c-6.887-3.054-18.259-6.227-27.8-6.227c-4.272,0-9.759,0.674-11.986,3.831c0.447,5.825,5,66.904-0.134,77.201
		c-2.214,4.441-10.545,10.552-20.191,17.628c-12.431,9.119-27.905,20.472-25.538,26.421c4.146,10.419,17.588,10.722,19.108,10.722
		c0.489,0,0.865-0.02,1.094-0.05L143.65,734.426z"/>
</g>
<g>
	<path fill="#54463A" d="M165.946,702.569c-5.766-1.449-10.789-8.549-17.78-6.86c-14.59,10.855-30.238,21.099-27.24,28.631
		c4.464,11.225,19.068,11.609,21.3,11.319c-1.953,6.967-0.837,20.318,43.254,8.998c44.09-11.321,53.578-22.411,37.547-45.062
		C219.959,708.308,172.643,716.987,165.946,702.569z"/>
	<path fill="#695949" d="M142.722,712.312c3.304-4.788,9.599-11.285,14.355-14.607c-2.722-1.614-5.595-2.798-8.911-1.996
		c-14.59,10.855-30.238,21.099-27.24,28.631c2.431,6.111,7.864,8.996,12.673,10.32C135.797,725.988,137.699,719.591,142.722,712.312
		z"/>
	<path fill="#695949" d="M216.105,704.823c-4.003,2.598-43.462,12.164-50.159-2.254c-0.327-0.082-0.651-0.188-0.974-0.303
		c-0.457,0.594-1.082,1.097-1.928,1.413c-5.279,1.966-11.405,11.493-14.089,16.075c-2.913,4.969-4.447,10.677-6.745,15.905
		c0.004-0.001,0.012-0.001,0.017-0.001c-1.953,6.967,3.092,13.386,41.352,1.927C203.357,731.662,227.288,727.924,216.105,704.823z"
		/>
	<path d="M157.808,750.083c-7.625,0-12.79-1.712-15.35-5.088c-1.647-2.17-2.176-4.999-1.558-8.24
		c-2.071-0.015-16.368-0.538-20.939-12.031c-2.958-7.431,8.913-16.136,22.657-26.218c1.637-1.2,3.29-2.412,4.927-3.63l0.376-0.177
		c0.788-0.191,1.59-0.287,2.386-0.287c3.722,0,6.828,2.03,9.832,3.997c2.08,1.362,4.046,2.647,6.06,3.152l0.48,0.121l0.209,0.45
		c2.125,4.576,9.281,7.095,20.148,7.095c16.223,0,33.476-5.62,35.011-9.977l0.668-1.896l1.16,1.641
		c6.785,9.588,8.88,16.953,6.595,23.18c-3.41,9.287-16.787,16.312-44.732,23.486C174.313,748.597,164.916,750.083,157.808,750.083z
		 M143.65,734.426l-0.423,1.514c-0.62,2.21-0.968,5.355,0.887,7.8c4.29,5.662,18.583,5.697,41.108-0.09
		c27.205-6.984,40.154-13.621,43.299-22.189c1.93-5.257,0.204-11.622-5.435-19.956c-4.6,5.552-22.373,9.802-36.048,9.802
		c-11.396,0-19.109-2.785-21.813-7.857c-2.177-0.655-4.232-1.998-6.221-3.301c-3.25-2.124-6.731-4.267-10.393-3.475
		c-1.585,1.178-3.181,2.347-4.763,3.508c-11.956,8.771-24.319,17.837-21.956,23.776c4.146,10.419,17.588,10.722,19.108,10.722
		c0.489,0,0.865-0.02,1.094-0.05L143.65,734.426z"/>
</g>
<g>
	<path d="M143.217,735.971l-1.981-0.625c0.374-1.186,9.36-29.113,24.404-33.768l0.614,1.983
		C152.238,707.898,143.305,735.691,143.217,735.971z"/>
</g>
<g>
	<path fill="#533C2A" d="M463.379,568.285c0,0,4.848,72.071,0,83.385c-4.849,11.313-46.743,36.458-42.588,48.61
		c4.156,12.149,17.744,12.567,19.821,12.253c-1.818,7.543-0.779,22,40.251,9.742c41.029-12.256,52.454-22.941,31.42-54.369
		c4.675-9.428,7.012-12.571,6.232-15.4c-0.778-2.827-21.293-16.655-16.1-82.023C490.729,564.196,468.227,559.172,463.379,568.285z"
		/>
	<path d="M455.113,728.065C455.113,728.065,455.113,728.065,455.113,728.065c-6.686,0-11.36-1.633-13.895-4.853
		c-2.321-2.944-2.396-6.632-1.893-9.581c-2.114-0.023-15.301-0.687-19.518-13.016c-2.708-7.92,11.073-19.681,24.401-31.056
		c8.411-7.18,16.354-13.961,18.213-18.3c4.696-10.957-0.032-82.188-0.08-82.906l-0.021-0.294l0.139-0.266
		c1.925-3.612,6.44-5.523,13.062-5.523c9.495,0,20.852,3.782,27.387,7.295l0.597,0.321l-0.056,0.678
		c-4.438,55.885,9.841,73.559,14.53,79.366c0.886,1.096,1.371,1.698,1.538,2.299c0.699,2.546-0.577,5.007-3.375,10.397
		c-0.771,1.481-1.66,3.193-2.663,5.204c9.132,13.769,11.948,23.424,9.132,31.251c-3.95,10.977-19.427,17.608-41.451,24.188
		C470.51,726.452,461.748,728.065,455.113,728.065z M441.983,711.275l-0.361,1.502c-0.639,2.65-0.945,6.392,1.228,9.151
		c2.123,2.694,6.247,4.06,12.263,4.06c0.001,0,0.001,0,0.001,0c6.432,0,14.995-1.585,25.45-4.709
		c21.422-6.398,36.438-12.741,40.093-22.898c2.571-7.144-0.365-16.643-9.234-29.896l-0.336-0.501l0.267-0.538
		c1.12-2.258,2.104-4.154,2.946-5.774c2.542-4.895,3.699-7.128,3.215-8.889c-0.077-0.217-0.646-0.923-1.148-1.544
		c-4.802-5.943-19.372-23.981-15.039-80.156c-6.388-3.302-16.949-6.732-25.804-6.732c-3.953,0-9.039,0.732-11.086,4.174
		c0.385,5.821,4.676,72.407-0.103,83.558c-2.052,4.785-10.177,11.718-18.775,19.06c-11.599,9.898-26.035,22.221-23.786,28.803
		c3.861,11.287,16.292,11.614,17.694,11.614c0.446,0,0.782-0.021,0.989-0.051L441.983,711.275z"/>
</g>
<g>
	<path fill="#54463A" d="M462.685,676.705c-5.363-1.568-13.54-2.826-16.547-7.426c-13.575,11.753-28.136,22.843-25.347,31.001
		c4.156,12.149,17.744,12.567,19.821,12.253c-1.818,7.543-0.779,22,40.251,9.742c41.029-12.256,49.858-24.262,34.943-48.788
		C512.95,682.918,468.918,692.317,462.685,676.705z"/>
	<path fill="#695949" d="M453.084,673.965c-2.91-1.069-5.516-2.498-6.946-4.686c-13.575,11.753-28.136,22.843-25.347,31.001
		c2.357,6.893,7.748,10.006,12.354,11.354C438.303,699.271,442.278,682.741,453.084,673.965z"/>
	<path fill="#695949" d="M508.616,679.516c-4.932,3.054-38.455,12.44-45.552-2.019c-0.146,0.073-0.277,0.156-0.438,0.215
		c-6.898,2.574-12.64,11.874-15.646,18.152c-2.993,6.252-4.077,13.639-6.696,20.028c0.553,5.28,7.939,7.138,36.906-1.59
		C494.184,709.183,517.522,695.399,508.616,679.516z"/>
	<path d="M455.112,728.065c-6.684,0-11.358-1.632-13.894-4.851c-2.321-2.946-2.396-6.634-1.893-9.583
		c-2.114-0.023-15.301-0.687-19.518-13.016c-2.703-7.907,8.311-17.307,21.062-28.189c1.524-1.301,3.062-2.612,4.588-3.934
		l0.898-0.778l0.65,0.996c2.24,3.431,8.092,4.936,12.79,6.145c1.123,0.29,2.197,0.565,3.18,0.854l0.485,0.142l0.188,0.469
		c2.668,6.685,12.839,7.684,18.662,7.684c15.052,0,31.069-6.096,32.5-10.815l0.673-2.227l1.207,1.986
		c6.578,10.814,8.411,19.05,5.77,25.918c-3.673,9.555-16.026,16.854-41.301,24.405C470.51,726.452,461.745,728.065,455.112,728.065z
		 M441.983,711.275l-0.361,1.502c-0.639,2.65-0.945,6.392,1.228,9.151c4.394,5.574,17.484,5.397,37.714-0.649
		c24.592-7.344,36.542-14.271,39.959-23.161c2.268-5.893,0.785-13.079-4.671-22.517c-4.423,5.942-20.865,10.479-33.539,10.479
		c-10.658,0-17.869-3.02-20.388-8.514c-0.83-0.233-1.721-0.462-2.645-0.699c-4.883-1.258-10.364-2.668-13.303-6.08
		c-1.251,1.081-2.509,2.154-3.759,3.22c-11.669,9.959-22.691,19.364-20.446,25.936c3.861,11.287,16.292,11.614,17.694,11.614
		c0.446,0,0.782-0.021,0.989-0.051L441.983,711.275z"/>
</g>
<g>
	<path fill="#72513A" d="M304.864,132.339c0,0-122.752-17.694-225.848,102.999c-168.251,196.97-42.935,340.55-73.403,375.175
		c13.849,2.77,20.513-16.183,20.513-16.183c2.077,14.543,19.476,55.831,14.802,66.479c6.232-4.675,14.542-23.372,12.984-35.317
		c5.193,22.074,8.829,41.809,4.674,49.599c7.791-10.127,18.178-21.033,18.958-30.643c2.856,19.218,12.205,32.98,16.36,36.615
		c-1.818-11.166,6.492-34.018,10.387-39.47c5.712,9.867,11.685,31.161,8.05,39.47c7.271-4.934,25.968-28.563,28.045-41.549
		c3.636,14.024,11.166,23.112,18.177,31.942c-0.519-14.023,4.934-36.875,9.609-42.069c3.636,7.011,5.193,8.05,5.193,17.918
		c5.713-5.973,14.022-10.646,23.631-30.643c0.52,9.608,9.35,19.477,15.582,26.229c-0.779-9.608,12.725-27.268,17.138-36.356
		c3.636,7.532,4.155,6.233,9.35,14.023c5.193-5.712,26.227-32.459,25.188-38.432c6.232,21.033,18.957,21.033,22.852,32.199
		c3.896-5.452,8.83-19.735,8.05-24.67c5.454,8.57,11.629,28.047,9.709,42.069c5.352-12.206,19.635-19.218,25.867-37.654
		c3.636,19.736,10.127,37.134,14.281,42.588c-4.414-18.179,14.022-49.859,14.022-49.859c0,7.791,2.598,28.824,0,35.058
		c8.052-2.856,27.786-27.267,28.825-37.913c3.117,12.205,9.09,32.459,9.867,39.471c5.195-13.764,15.841-37.134,15.062-48.561
		c5.453,15.062,6.491,14.283,11.685,20.516c-0.777-8.83,7.531-24.67,10.647-29.084c2.598,11.945,20.516,47.002,14.802,61.544
		c4.155-5.713,16.101-30.124,13.504-41.549c10.387,18.437,30.123,37.913,29.603,57.648c2.856-7.531,9.868-17.918,7.791-27.006
		c7.531,9.868,32.979,33.497,25.968,55.571c6.492-8.829,17.399-22.333,15.062-36.615c5.712,15.062,10.387,28.565,7.53,42.588
		c6.752-11.686,21.294-39.731,19.216-54.015c4.936,8.83,9.608,19.995,14.283,23.632c-1.559-12.984,14.281-39.99,14.281-48.82
		c4.675,9.609,12.466,26.488,9.868,39.472c8.05-7.531,21.813-35.576,19.736-43.626c5.973,7.53,2.856,5.193,11.686,14.802
		c-1.559-13.763,67.948-110.884,56.87-169.744c-11.079-58.859-39.473-192.51-229.558-214.323
		C432.525,177.023,371.444,135.954,304.864,132.339z"/>
	<path fill="#876144" d="M304.864,132.244c0,0-122.752-15.864-225.848,92.352c-168.251,176.607-52.891,321.88-52.891,321.88
		c12.725,17.646,19.476,50.061,14.802,59.605c6.232-4.192,14.542-20.955,12.984-31.665c5.193,19.79,8.829,37.485,4.674,44.47
		c7.791-9.081,18.178-18.859,18.958-27.473c2.856,17.229,12.205,29.569,16.36,32.828c-1.818-10.011,6.492-30.502,10.387-35.392
		c5.712,8.851,11.685,27.94,8.05,35.392c7.271-4.423,25.968-25.61,28.045-37.254c3.636,12.574,11.166,20.724,18.177,28.64
		c-0.519-12.574,4.934-33.062,9.609-37.72c3.636,6.287,5.193,7.219,5.193,16.065c5.713-5.354,14.022-9.545,23.631-27.473
		c0.52,8.614,9.35,17.462,15.582,23.516c-0.779-8.614,12.725-24.446,17.138-32.597c3.636,6.752,5.973,18.76,11.166,25.745
		c5.195-5.123,27.526-50.378,23.372-67.517c14.542,19.735,1.557,38.951,14.542,59.727c4.446-13.103,17.139-28.666,16.359-33.09
		c5.454,7.683,11.629,25.147,9.709,37.719c5.352-10.942,19.635-17.229,25.867-33.76c3.636,17.694,10.127,33.295,14.281,38.185
		c-4.414-16.299,14.022-44.705,14.022-44.705c0,6.985,2.598,25.847,0,31.433c8.052-2.56,27.786-24.447,28.825-33.994
		c3.117,10.944,9.09,29.104,9.867,35.392c10.907-13.279,14.283-55.49,13.504-65.734c5.453,13.505,4.155,31.161,13.243,40.589
		c-0.777-7.916,7.531-22.119,10.647-26.078c2.598,10.711,20.516,42.144,14.802,55.183c4.155-5.123,16.101-27.01,13.504-37.254
		c10.387,16.53,30.123,33.993,29.603,51.688c2.856-6.752,9.868-16.066,7.791-24.216c7.531,8.85,32.979,30.035,25.968,49.828
		c6.492-7.916,17.399-20.022,15.062-32.83c5.712,13.505,10.387,25.611,7.53,38.185c6.752-10.477,21.294-35.623,19.216-48.428
		c4.936,7.916,9.608,17.928,14.283,21.188c-1.559-11.644,14.281-35.859,14.281-43.775c4.675,8.616,12.466,23.751,9.868,35.392
		c8.05-6.752,21.813-31.897,19.736-39.116c5.973,6.752,2.856,4.655,11.686,13.272c-1.559-12.341,37.479-100.221,26.399-152.997
		c-11.079-52.773-20.427-161.524-199.087-181.605C432.525,182.07,371.444,135.486,304.864,132.244z"/>
	<g>
		<path fill="#936A4E" d="M434.604,249.963c0,0,79.98,61.575,145.94,56.381c-20.747-24.569-21.295-34.71-42.588-42.778
			c90.369,19.521,104.392,136.177,90.888,181.144c-7.271-19.433-31.161-42.284-41.549-46.44
			c16.619,23.891,33.382,63.021,20.774,111.144c-4.155-24.93-25.968-89.832-56.091-104.124
			c21.813,36.607,22.853,101.008,2.078,126.976c2.077-27.006-0.317-64.399-11.584-74.787c-0.882,11.427-0.491,68.556-9.516,90.368
			c-4.869-29.083-35.67-81.019-42.603-124.646c-13.164,24.93-9.688,36.354,0,86.213c-17.319-19.734-44.325-71.672-46.403-95.562
			c-7.271,23.891-4.73,74.029,7.373,99.719c-23.992-30.124-73.348-86.215-69.443-128.802c-19.988,28.045-18.908,82.06-7.503,111.143
			c-23.911-22.852-40.531-78.164-36.376-126.854c-12.464,9.479-43.626,84.266-37.394,126.854
			c-25.969-61.284-20.49-90.713-18.555-117.547c-30.266,61.455-38.426,79.291-30.448,122.74
			c-10.205-29.084-17.475-61.285-14.359-77.903c-20.775,22.852-9.096,84.136-37.788,116.337
			c7.664-25.968-7.595-63.547-12.425-76.866c1.393,28.046,6.568,54.014-11.601,85.175c1.567-22.852-8.589-65.439-21.689-68.555
			c3.52,16.619,0.673,50.767-19.871,93.484c2.617-33.238-20.454-44.665-26.058-66.479c-7.681,23.891-15.295,45.621-13.913,74.789
			c-14.543-37.395-22.504-68.662-21.13-89.33c-15.226,20.774-9.369,53.048-1.471,79.98c-17.91-42.588-42.145-89.013-14.447-130.2
			c27.699-41.188,130.697-170.98,132.173-206.84c1.476-35.86,57.298-87.185,115.99-73.253
			C363.71,175.373,408.762,227.626,434.604,249.963z"/>
	</g>
	<path d="M547.092,684.509l1.271-6.249c2.378-11.673-0.563-23.02-5.261-36.027c-0.987,11.351-8.752,21.812-14.183,29.128
		l-5.029,6.831l1.909-6.012c5.694-17.931-10.943-37.217-20.885-48.737c-0.963-1.115-1.859-2.157-2.672-3.12
		c0.034,6.081-2.917,12.335-5.574,17.965c-1.012,2.146-1.971,4.176-2.666,6.012l-2.171,5.72l0.16-6.115
		c0.357-13.54-9.216-27.178-18.476-40.364c-2.973-4.235-6.023-8.58-8.686-12.863c-0.354,13.151-10.835,33.32-14.066,37.763
		l-4.775,6.567l2.967-7.556c3.894-9.911-3.88-30.449-9.56-45.449c-1.943-5.139-3.676-9.713-4.687-13.168
		c-3.635,6.011-9.853,19.046-9.2,26.444l0.292,3.306l-2.124-2.55c-0.917-1.099-1.702-1.978-2.405-2.764
		c-2.892-3.236-4.434-4.963-7.685-13.319c-1.295,9.712-6.798,23.456-11.362,34.869c-1.298,3.245-2.516,6.284-3.525,8.962
		l-1.525,4.045l-0.479-4.297c-0.541-4.857-3.723-16.585-6.533-26.929c-0.797-2.936-1.576-5.809-2.279-8.455
		c-4.343,12.066-20.958,32.013-28.501,34.689l-2.207,0.781l0.901-2.159c1.749-4.193,0.963-16.288,0.392-25.116
		c-0.137-2.075-0.261-4.001-0.348-5.695c-4.495,8.55-15.539,31.603-12.097,45.768l1.169,4.819l-3.005-3.945
		c-3.989-5.234-10.032-21.093-13.781-39.437c-3.754,8.897-9.382,15.051-14.415,20.548c-4.098,4.48-7.971,8.712-10.177,13.744
		l-2.99,6.818l1.011-7.377c1.691-12.373-3.098-28.983-7.772-38.203c-0.943,6.611-4.905,17.056-8.113,21.549l-1.166,1.632
		l-0.659-1.893c-1.523-4.36-4.518-6.959-7.987-9.966c-4.462-3.869-9.904-8.588-13.675-18.667
		c-4.048,10.281-21.183,31.427-24.631,35.219l-0.895,0.986l-0.738-1.107c-2.033-3.049-3.348-4.696-4.403-6.021
		c-1.425-1.787-2.436-3.055-4.098-6.282c-1.273,2.356-2.951,5.105-4.704,7.979c-5.305,8.7-11.908,19.529-11.383,25.997l0.242,3
		l-2.04-2.214c-6.521-7.062-13.457-15.159-15.369-23.484c-7.106,13.86-13.403,19.61-18.527,24.29
		c-1.363,1.244-2.648,2.418-3.802,3.624l-1.791,1.87v-2.589c0-8.066-1.029-9.955-3.516-14.522c-0.249-0.456-0.51-0.937-0.786-1.449
		c-4.141,6.603-8.917,26.73-8.422,40.084l0.117,3.163l-2.78-3.498c-6.247-7.853-12.685-15.948-16.479-27.605
		c-4.442,13.593-20.604,33.742-27.537,38.447l-2.977,2.018l1.442-3.294c3.338-7.631-1.855-26.851-7.156-37.003
		c-3.97,7.055-10.938,27.218-9.304,37.253l0.463,2.85l-2.173-1.902c-3.825-3.346-12.153-15.242-15.797-32.245
		c-2.398,6.655-8.004,13.617-13.465,20.393c-1.553,1.93-3.096,3.844-4.547,5.731l-1.741-1.122
		c3.565-6.684,0.877-23.578-2.938-40.871c-1.612,11.043-7.746,23.834-13.18,27.909l-3.164,2.371l1.59-3.62
		c2.848-6.484-3.416-26.466-8.448-42.521c-2.361-7.535-4.617-14.732-5.792-20.003c-2.422,4.971-8.089,13.962-17.395,13.962
		c-0.961,0-1.948-0.1-2.933-0.297l-1.765-0.354l1.189-1.352c8.72-9.909,3.975-29.89-2.593-57.541
		c-15.893-66.919-42.494-178.918,75.986-317.623c80.391-94.113,173.197-104.274,209.367-104.274c10.907,0,17.158,0.883,17.42,0.92
		c61.406,3.331,124.719,40.04,161.343,93.557c193.733,22.449,220.066,162.397,229.987,215.108
		c7.669,40.746-22.3,98.43-42.132,136.598c-8.481,16.326-15.181,29.218-14.726,33.221l0.355,3.165l-2.154-2.345
		c-5.459-5.94-6.404-7.371-7.71-9.35c-0.521-0.788-1.088-1.646-2.031-2.921c-0.986,11.207-13.276,34.67-20.204,41.151l-2.363,2.209
		l0.635-3.17c2.344-11.715-4.189-27.064-8.308-35.753c-0.939,3.949-3.099,9.287-5.499,15.232
		c-4.296,10.63-9.165,22.682-8.295,29.947l0.298,2.473l-1.966-1.529c-3.573-2.779-6.971-9.393-10.565-16.394
		c-0.618-1.203-1.247-2.43-1.88-3.641c-0.871,16.994-16.192,44.366-19.517,50.116L547.092,684.509z M104.381,639.677l0.808,1.395
		c5.277,9.114,10.627,27.187,9.007,37.174c8.364-7.524,23.377-27.732,25.164-38.896l0.784-4.903l1.247,4.807
		c3.259,12.574,9.698,21.112,16.109,29.195c0.25-14.098,5.208-34.546,9.898-39.757l1.004-1.114l0.691,1.331
		c0.562,1.085,1.076,2.028,1.541,2.881c2.323,4.264,3.512,6.449,3.731,13.062c0.692-0.655,1.41-1.311,2.15-1.986
		c5.348-4.883,12.001-10.959,19.542-26.653l1.756-3.65l0.218,4.044c0.466,8.621,8.045,17.628,13.586,23.708
		c0.866-6.977,6.533-16.271,11.602-24.584c2.208-3.621,4.292-7.04,5.56-9.648l0.937-1.93l0.933,1.931
		c2.145,4.443,3.134,5.684,4.77,7.735c0.945,1.184,2.091,2.622,3.756,5.053c7.264-8.312,24.897-31.707,24.053-36.566l2.019-0.474
		c3.567,12.039,9.243,16.961,14.251,21.303c3.058,2.654,5.972,5.177,7.803,8.965c3.713-6.308,7.466-18.224,6.825-22.279
		l-0.779-4.935l2.681,4.215c4.839,7.603,10.493,24.036,10.229,37.891c2.268-3.507,5.172-6.683,8.201-9.992
		c5.519-6.032,11.773-12.866,15.288-23.26l1.279-3.789l0.726,3.934c2.92,15.858,7.684,30.202,11.564,37.917
		c-0.774-18.478,14.126-44.328,14.82-45.522l1.937-3.327v3.85c0,2.234,0.215,5.558,0.465,9.407
		c0.534,8.194,1.177,18.111,0.12,23.687c8.713-5.377,25.253-26.674,26.166-36.051l0.577-5.895l1.465,5.738
		c0.921,3.604,2.09,7.912,3.301,12.371c2.361,8.694,4.787,17.627,5.96,23.442c0.677-1.727,1.409-3.555,2.168-5.451
		c5.377-13.438,12.068-30.159,11.457-39.123l-0.503-7.372l2.516,6.947c4.414,12.189,5.869,13.819,9.057,17.386
		c0.204,0.227,0.415,0.464,0.635,0.712c0.771-9.196,7.748-22.566,10.817-26.911l1.361-1.93l0.5,2.306
		c0.745,3.426,2.812,8.884,5.205,15.205c4.864,12.852,11.238,29.69,10.687,41.069c5.041-9.339,12.39-27.02,10.389-35.828
		l-1.58-6.946l3.497,6.209c3.056,5.422,6.858,10.839,10.883,16.572c8.44,12.022,17.138,24.412,18.637,37.053
		c0.305-0.652,0.619-1.318,0.938-1.999c3.047-6.452,6.499-13.766,5.018-20.244l-1.066-4.668l2.905,3.806
		c1.204,1.581,2.891,3.532,4.84,5.795c9.363,10.851,24.506,28.4,22.346,45.9c6.383-8.688,13.945-20.01,11.994-31.938l-1.671-10.201
		l3.666,9.663c5.236,13.806,9.235,25.634,8.34,37.652c6.087-11.177,18.295-35.598,16.407-48.56l-0.81-5.568l2.745,4.912
		c1.361,2.436,2.712,5.067,4.021,7.614c2.728,5.313,5.53,10.771,8.219,13.949c0.245-7.76,4.623-18.594,8.535-28.276
		c3.007-7.438,5.845-14.465,5.845-17.97v-4.51l1.973,4.055c3.517,7.229,11.387,23.406,10.398,36.812
		c8.026-9.739,19.041-33.379,17.266-40.252l-1.224-4.744l3.043,3.839c2.345,2.956,3.293,4.391,4.129,5.654
		c1.117,1.692,1.96,2.966,5.913,7.342c1.191-5.756,6.825-16.602,14.745-31.845c19.698-37.916,49.471-95.216,41.934-135.255
		c-9.852-52.343-36.021-191.38-228.653-213.484l-0.473-0.054l-0.268-0.395c-36.232-53.213-99.074-89.738-160.1-93.052
		c-0.154-0.017-6.474-0.908-17.215-0.908c-35.881,0-127.958,10.09-207.787,103.546C-37.989,373.914-11.541,485.272,4.262,551.806
		c6.416,27.015,11.131,46.862,3.296,57.921c11.62,0.724,17.53-15.578,17.588-15.741l1.408-4.004l0.6,4.202
		c0.73,5.115,3.463,13.834,6.357,23.066c4.662,14.876,9.862,31.466,9.168,40.356c5.451-6.652,11.529-21.799,10.202-31.981
		l2.041-0.371c4.138,17.588,7.602,34.873,6.151,45.009c0.42-0.524,0.842-1.047,1.267-1.572c6.667-8.275,13.559-16.833,14.167-24.325
		l0.732-9.024l1.331,8.955c2.436,16.393,9.553,28.594,14.047,33.927c-0.274-12.16,7.215-32.178,10.827-37.235L104.381,639.677z"/>
</g>
<g>
	<path fill="#CE9867" d="M198.34,181.178c0,0,63.616,29.084,116.59-3.116c47.672-28.977,56.092-63.362,30.643-125.686
		c33.904,18.177,57.251,106.815,8.311,154.389c-60.767,59.068-149.058,22.194-151.654,20.117
		C192.881,206.108,189.777,189.488,198.34,181.178z"/>
	<path fill="#D3AF89" d="M198.34,181.178c0,0,63.616,29.084,116.59-3.116c47.672-28.977,56.092-63.362,30.643-125.686
		c33.904,18.177,42.287,110.797,0.991,145.733c-56.533,47.828-148.878,11.254-151.476,9.176
		C185.741,186.512,189.777,189.488,198.34,181.178z"/>
	<path d="M267.454,241.188c-35.892,0-64.563-12.447-65.874-13.494l-0.194-0.157l-0.104-0.228
		c-10.629-23.621-11.829-38.954-3.665-46.876l0.509-0.494l0.647,0.295c0.261,0.12,26.547,11.956,58.836,11.956
		c21.285,0,40.392-5.052,56.782-15.015c47.315-28.76,55.506-62.478,30.22-124.405l-1.091-2.672l2.544,1.364
		c17.054,9.143,31.353,35.522,35.584,65.64c5.035,35.855-4.82,68.809-27.041,90.409
		C331.618,229.858,302.295,241.188,267.454,241.188z M203.052,226.179c2.794,1.577,30.525,12.932,64.402,12.932
		c34.281,0,63.117-11.133,85.704-33.089c21.741-21.134,31.375-53.438,26.433-88.63c-3.923-27.929-16.566-52.509-31.906-62.55
		c24.359,61.309,15.47,95.123-32.214,124.107c-16.722,10.164-36.188,15.317-57.861,15.317c-29.872,0-54.686-9.997-59.028-11.851
		C191.696,189.781,193.165,204.114,203.052,226.179z"/>
</g>
<g>
	<path fill="#72513A" d="M199.635,206.818c20.358,5.522,61.801,68.364,115.295,95.546c-11.426,6.577-33.759,2.543-37.393,1.185
		c11.425,7.989,15.061,14.741,20.254,16.818c-18.697-2.077-37.395-6.752-43.626-11.945c0,9.868-18.177,5.084-41.029-16.155
		C197.041,265.389,191.972,204.738,199.635,206.818z"/>
	<path fill="#876144" d="M295.651,297.516c-41.36-21.018-66.145-56.94-83.694-76.301c-2.157,3.495-2.29,3.468-4.397,6.984
		c0.502,0.921,0.948,1.764,1.284,2.484c2.914,6.249,4.758,12.604,6.079,19.398c3.06,15.729,4.147,31.582,4.505,47.521
		c18.234,13.886,25.609,4.611,25.609-4.295c6.883,9.058,18.148,15.428,38.204,21.606c-5.193-2.078-17.017-16.938-28.444-24.928
		C258.433,291.344,276.372,297.516,295.651,297.516z"/>
	<path d="M305.282,322.243l-7.606-0.843c-15.901-1.767-34.669-5.825-42.698-11.096c-0.683,2.613-2.883,4.073-6.267,4.073
		c-8.21,0-22.112-8.182-36.283-21.35l-0.185-0.228c-14.923-24.924-20.297-76.749-15.384-85.416c0.775-1.371,1.734-1.657,2.4-1.657
		c0.214,0,0.432,0.029,0.647,0.088c8.968,2.433,21.514,15.252,37.396,31.481c21.21,21.674,47.607,48.648,78.1,64.142l1.709,0.869
		l-1.664,0.957c-4.373,2.518-10.606,3.794-18.527,3.794c-5.407,0-10.833-0.637-14.732-1.339c3.698,2.936,6.416,5.616,8.709,7.882
		c2.861,2.822,4.926,4.861,7.279,5.802L305.282,322.243z M253.127,306.204l1.705,1.421c5.208,4.339,20.693,8.777,38.546,11.156
		c-1.248-1.047-2.52-2.304-3.938-3.701c-3.007-2.968-6.75-6.661-12.499-10.679l-6.709-4.693l7.669,2.867
		c1.894,0.708,10.056,2.405,19.019,2.405c6.421,0,11.803-0.905,15.726-2.629c-30.025-15.776-55.932-42.249-76.829-63.603
		c-15.661-16.003-28.031-28.644-36.454-30.929c-0.244,0-0.487,0.217-0.698,0.59c-4.608,8.132,1.055,59.286,15.286,83.198
		c16.461,15.271,29.008,20.693,34.76,20.693c2.971,0,4.416-1.268,4.416-3.879V306.204z"/>
</g>
<g>
	<path d="M263.853,240.734l-1.716-1.17c15.416-22.606-7.11-45.393-7.339-45.621l1.463-1.476
		C256.502,192.707,280.25,216.69,263.853,240.734z"/>
</g>
<g>
	<path d="M313.731,232.774l-2.044-0.363c4.381-24.626-15.831-44.61-16.036-44.809l1.45-1.489
		C297.313,186.319,318.307,207.078,313.731,232.774z"/>
</g>
<g>
	<path d="M360.797,198.11c-5.36-27.363-30.251-29.682-30.5-29.703l0.167-2.071c0.268,0.022,26.712,2.484,32.37,31.374
		L360.797,198.11z"/>
</g>
<g>
	<path d="M380.959,142.708c-6.356-12.141-24.398-8.942-24.58-8.909l-0.382-2.043c0.801-0.147,19.73-3.517,26.804,9.989
		L380.959,142.708z"/>
</g>
<g>
	<path fill="#CE9867" d="M17.291,181.178c0,0-63.616,29.084-116.59-3.116c-47.671-28.977-56.091-63.362-30.642-125.686
		c-33.904,18.177-57.251,106.815-8.31,154.389c60.765,59.068,149.057,22.194,151.653,20.117
		C22.75,206.108,25.854,189.488,17.291,181.178z"/>
	<path fill="#D3AF89" d="M17.291,181.178c0,0-63.616,29.084-116.59-3.116c-47.671-28.977-56.091-63.362-30.642-125.686
		c-33.904,18.177-57.729,99.963-7.098,145.733c47.653,43.078,150.438,10.785,153.035,8.708
		C25.344,186.043,25.854,189.488,17.291,181.178z"/>
	<path d="M-51.82,241.188c-0.002,0-0.001,0-0.001,0c-34.845,0-64.167-11.33-87.155-33.677c-22.22-21.6-32.077-54.552-27.04-90.409
		c4.23-30.118,18.53-56.497,35.583-65.64l2.543-1.364l-1.091,2.672c-25.286,61.927-17.096,95.645,30.221,124.405
		c16.391,9.963,35.496,15.015,56.781,15.015c32.289,0,58.575-11.835,58.837-11.956l0.646-0.295l0.509,0.494
		c8.164,7.922,6.964,23.255-3.665,46.876l-0.103,0.228l-0.195,0.157C12.741,228.741-15.932,241.188-51.82,241.188z M-132.055,54.842
		c-15.337,10.041-27.981,34.622-31.904,62.55c-4.943,35.191,4.692,67.496,26.432,88.63c22.586,21.956,51.421,33.089,85.704,33.089
		c33.849,0,61.563-11.337,64.403-12.935c9.888-22.065,11.355-36.395,4.471-43.76c-4.343,1.854-29.158,11.851-59.029,11.851
		c-21.672,0-41.139-5.153-57.861-15.317C-147.523,149.965-156.413,116.151-132.055,54.842z"/>
</g>
<g>
	<path fill="#72513A" d="M15.995,206.818C-4.362,212.34-45.806,275.182-99.3,302.364c11.426,6.577,33.758,2.543,37.394,1.185
		c-11.426,7.989-15.062,14.741-20.255,16.818c18.696-2.077,37.394-6.752,43.626-11.945c0,9.868,18.177,5.084,41.029-16.155
		C18.59,265.389,23.66,204.738,15.995,206.818z"/>
	<path fill="#876144" d="M2.18,235.24c-4.965,2.84-9.748,5.295-15.612,4.8c-2.923-0.249-4.941-3.205-3.836-5.753
		c-21.567,21.98-49.575,51.585-82.032,68.077c11.702,0,32.46-15.755,56.61-9.058c-16.1,6.546-34.277,24.984-39.471,27.062
		c18.696-2.077,41.289-19.216,47.521-24.41c0,9.868,5.031,12.15,27.883-9.089c9.406-15.707,18.198-41.092,22.357-59.075
		C11.128,230.276,6.623,232.701,2.18,235.24z"/>
	<path d="M-89.651,322.243l7.105-2.84c2.353-0.941,4.419-2.979,7.278-5.802c2.295-2.266,5.012-4.946,8.71-7.882
		c-3.899,0.702-9.325,1.339-14.731,1.339c-7.92,0-14.155-1.277-18.529-3.794l-1.663-0.957l1.71-0.869
		c30.492-15.493,56.888-42.468,78.099-64.142c15.882-16.229,28.427-29.049,37.395-31.481c0.216-0.059,0.434-0.088,0.647-0.088
		c0.667,0,1.626,0.287,2.402,1.657c4.913,8.667-0.461,60.492-15.386,85.416l-0.184,0.228c-14.169,13.167-28.071,21.35-36.281,21.35
		c0,0,0,0-0.001,0c-3.383,0-5.584-1.46-6.266-4.073c-8.029,5.271-26.797,9.329-42.7,11.096L-89.651,322.243z M-54.601,299.708
		l-6.709,4.693c-5.749,4.018-9.491,7.71-12.498,10.679c-1.417,1.397-2.69,2.654-3.938,3.701
		c17.852-2.379,33.337-6.817,38.546-11.156l1.705-1.421v2.218c0,2.608,1.444,3.879,4.417,3.879c5.749,0,18.297-5.421,34.758-20.693
		c14.231-23.913,19.896-75.066,15.286-83.198c-0.212-0.373-0.439-0.605-0.595-0.605c-8.526,2.301-20.896,14.941-36.557,30.944
		c-20.896,21.354-46.804,47.827-76.829,63.603c3.925,1.724,9.306,2.629,15.727,2.629c8.963,0,17.125-1.698,19.019-2.405
		L-54.601,299.708z"/>
</g>
<g>
	<path d="M-48.222,240.734c-16.398-24.044,7.351-48.027,7.592-48.267l1.463,1.476c-0.229,0.229-22.755,23.015-7.339,45.621
		L-48.222,240.734z"/>
</g>
<g>
	<path d="M-98.101,232.774c-4.574-25.696,16.418-46.454,16.63-46.66l1.449,1.489c-0.205,0.199-20.413,20.21-16.034,44.809
		L-98.101,232.774z"/>
</g>
<g>
	<path d="M-145.164,198.11l-2.04-0.4c5.659-28.89,32.104-31.352,32.371-31.374l0.168,2.071
		C-115.689,168.492-139.815,170.794-145.164,198.11z"/>
</g>
<g>
	<path d="M-165.329,142.708l-1.84-0.964c7.073-13.51,26.002-10.136,26.803-9.989l-0.381,2.043
		C-140.927,133.766-158.968,130.566-165.329,142.708z"/>
</g>
<g>
	<path fill="#72513A" d="M205.172,226.883c-3.804-21.498-34.808-97.469-96.694-91.93c-71.611,6.408-95.77,79.222-98.019,91.93
		c-13.851,78.251-28.393,127.416-9.003,160.653c19.263,33.023,21.453,88.591,106.359,84.562
		c84.907,4.028,87.097-51.539,106.36-84.562C233.565,354.298,219.022,305.134,205.172,226.883z"/>
	<path fill="#876144" d="M192.134,231.502c-5.652-21.087-21.771-102.088-83.657-96.549c-71.611,6.408-95.77,79.222-98.019,91.93
		c-13.851,78.251-28.393,127.416-9.003,160.653c19.263,33.023,21.391,60.815,106.297,56.786
		c84.907,4.029,60.018-25.841,79.28-58.863C206.423,352.221,213.356,310.672,192.134,231.502z"/>
	<path d="M116.348,473.344c-0.004,0-0.002,0-0.005,0c-2.774,0-5.66-0.069-8.577-0.21c-2.82,0.141-5.706,0.21-8.479,0.21
		c-61.546,0-75.913-33.893-88.588-63.797c-3.273-7.719-6.363-15.013-10.141-21.486c-16.333-27.998-9.034-66.344,2.015-124.386
		c2.232-11.728,4.54-23.853,6.863-36.974c3.187-18.013,29.324-86.551,98.95-92.783c2.165-0.194,4.343-0.292,6.477-0.292
		c56.428,0,87.111,69.22,91.332,93.075c2.324,13.121,4.632,25.246,6.864,36.974c11.048,58.042,18.347,96.388,2.015,124.386
		c-3.779,6.477-6.869,13.771-10.144,21.495C192.26,439.453,177.894,473.344,116.348,473.344z M107.766,471.061
		c2.983,0.137,5.835,0.206,8.577,0.206c60.178,0.001,74.254-33.215,86.674-62.522c3.299-7.786,6.416-15.139,10.26-21.73
		c15.942-27.328,8.701-65.368-2.259-122.95c-2.235-11.733-4.544-23.866-6.868-37c-4.145-23.416-34.171-91.36-89.287-91.36
		c-2.072,0-4.188,0.095-6.292,0.284c-77.441,6.931-96.941,90.239-97.089,91.077c-2.323,13.134-4.633,25.267-6.867,37
		c-10.96,57.583-18.202,95.623-2.26,122.95c3.842,6.589,6.959,13.94,10.258,21.724c12.423,29.31,26.504,62.529,86.675,62.529
		C102.028,471.267,104.88,471.197,107.766,471.061z"/>
</g>
<g>
	<path fill="#A37657" d="M251.555,348.067c-3.243-29.083-35.667-42.243-59.807-26.315c-30.951-8.498-57.472,9.075-83.933,12.143
		c-26.46-3.067-52.981-20.641-83.933-12.143c-24.139-15.927-56.563-2.768-59.806,26.315c-3.117,27.963,12.813,78.074,82.863,83.789
		c31.804,2.597,44.123-6.809,60.876-8.628c16.754,1.819,29.072,11.225,60.875,8.628C238.742,426.142,254.672,376.03,251.555,348.067
		z"/>
	<path fill="#B18868" d="M251.555,348.067c-3.243-29.083-35.667-42.243-59.807-26.315c-1.813-0.496-13.865,11.66-17.747,25.601
		c-5.369-8.459,2.825-22.482,7.396-27.542c-26.606-2.763-50.118,11.364-73.582,14.083c-22.461-2.604-44.967-15.66-70.188-14.347
		c3.647,4.457,6.419,14.497,6.419,29.191c-5.022-15.905-18.105-27.55-20.163-26.987c-24.139-15.927-56.563-2.768-59.806,26.315
		c-3.117,27.963,8.764,75.127,79.047,75.134c24.811,0.002,47.938-22.591,64.692-24.41c16.754,1.819,28.96,19.319,60.809,21.293
		C235.688,424.24,254.672,376.03,251.555,348.067z"/>
	<path d="M158.056,433.347c-0.001,0-0.001,0-0.001,0c-15.122,0-25.299-2.908-34.278-5.472c-5.387-1.54-10.479-2.992-15.961-3.601
		c-5.483,0.608-10.574,2.061-15.96,3.601c-8.978,2.563-19.154,5.472-34.278,5.472c-3.429,0-7.037-0.154-10.721-0.454
		c-29.71-2.425-52.325-12.815-67.215-30.887c-18.489-22.439-17.377-47.047-16.597-54.054c2.202-19.746,18.355-34.079,38.41-34.079
		c7.942,0,15.749,2.335,22.607,6.756c5.576-1.49,11.192-2.214,17.15-2.214c13.768,0,26.73,3.956,39.268,7.782
		c9.424,2.875,18.326,5.592,27.337,6.653c9.012-1.061,17.915-3.778,27.338-6.653c12.537-3.826,25.499-7.782,39.268-7.782
		c5.958,0,11.574,0.724,17.149,2.214c6.858-4.421,14.665-6.756,22.607-6.756c20.055,0,36.207,14.333,38.41,34.079
		c0.781,7.007,1.893,31.615-16.596,54.054c-14.89,18.071-37.505,28.462-67.216,30.887
		C165.091,433.192,161.484,433.347,158.056,433.347z M107.815,422.185l0.113,0.013c5.701,0.618,10.908,2.104,16.419,3.68
		c8.848,2.527,18.876,5.393,33.707,5.393h0.001c3.373,0,6.921-0.15,10.55-0.447c29.131-2.377,51.263-12.517,65.78-30.136
		c14.281-17.332,17.699-38.486,16.136-52.503c-2.36-21.162-20.069-32.233-36.345-32.233c-7.688,0-15.246,2.306-21.857,6.669
		l-0.393,0.259l-0.454-0.124c-5.543-1.524-11.122-2.262-17.053-2.262c-13.458,0-26.27,3.909-38.662,7.691
		c-9.557,2.917-18.584,5.672-27.824,6.744l-0.12,0.013l-0.12-0.013c-9.239-1.072-18.267-3.826-27.824-6.744
		c-12.391-3.782-25.204-7.691-38.662-7.691c-5.931,0-11.509,0.738-17.052,2.262l-0.455,0.124l-0.393-0.259
		c-6.612-4.363-14.17-6.669-21.858-6.669c-16.275,0-33.984,11.071-36.344,32.233c-1.563,14.017,1.855,35.171,16.134,52.503
		c14.519,17.619,36.65,27.759,65.78,30.136c3.629,0.297,7.18,0.447,10.553,0.447c14.833,0,24.86-2.865,33.708-5.393
		c5.511-1.575,10.718-3.062,16.419-3.68L107.815,422.185z"/>
</g>
<g>
	
		<ellipse transform="matrix(-0.9338 -0.3579 0.3579 -0.9338 250.2914 803.0511)" fill="#26150B" cx="199.459" cy="378.364" rx="19.216" ry="27.872"/>
	<path fill="#472E1E" d="M209.435,352.337c-8.45-3.24-18.772,2.538-25.048,13.218c5.915,0.007,11.929,2.15,15.691,6.108
		c8.309,8.739,6.324,21.206,2.062,31.67c6.217-3.057,11.981-9.531,15.263-18.092C222.914,370.867,219.344,356.134,209.435,352.337z"
		/>
	<path d="M194.412,406.329h-0.001c-1.84-0.002-3.622-0.325-5.298-0.97c-5.122-1.962-8.817-6.654-10.405-13.21
		c-1.553-6.42-0.9-13.889,1.839-21.035c4.675-12.197,14.529-20.717,23.962-20.717c1.838,0,3.621,0.325,5.296,0.97
		c5.122,1.961,8.818,6.654,10.405,13.211c1.555,6.418,0.902,13.889-1.837,21.034C213.697,397.812,203.845,406.329,194.412,406.329z
		 M204.509,352.475c-8.592,0-17.649,7.971-22.023,19.383c-2.589,6.758-3.214,13.789-1.759,19.802
		c1.423,5.874,4.664,10.051,9.128,11.761c1.438,0.552,2.971,0.83,4.555,0.832c8.592,0,17.649-7.97,22.023-19.383
		c2.589-6.758,3.214-13.79,1.759-19.802c-1.423-5.874-4.664-10.05-9.128-11.76C207.625,352.755,206.092,352.475,204.509,352.475z"/>
</g>
<g>
	
		<ellipse transform="matrix(-0.9177 0.3972 -0.3972 -0.9177 433.9591 447.8112)" fill="#B7B7B7" cx="170.599" cy="268.851" rx="26.227" ry="34.699"/>
	<path fill="#FFFEFD" d="M146.53,279.27c7.612,17.586,22.329,21.694,34.625,14.036c9.033-5.625,15.229-18.542,7.617-36.127
		c-7.613-17.587-18.663-25.925-31.956-20.17C143.523,242.763,138.917,261.684,146.53,279.27z"/>
	<path d="M176.212,303.402L176.212,303.402c-12.184,0-24.493-9.533-30.635-23.719c-3.771-8.712-4.749-18.025-2.753-26.226
		c2.022-8.307,6.844-14.486,13.58-17.402c2.693-1.164,5.58-1.756,8.585-1.756c12.181,0,24.492,9.533,30.633,23.721
		c7.828,18.082,2.971,37.652-10.825,43.627C182.104,302.812,179.217,303.402,176.212,303.402z M164.989,236.377
		c-2.719,0-5.33,0.534-7.76,1.585c-6.123,2.651-10.522,8.328-12.387,15.986c-1.89,7.763-0.951,16.61,2.642,24.909
		c5.818,13.439,17.362,22.468,28.729,22.468l0,0c2.719,0,5.329-0.534,7.758-1.585c12.747-5.517,17.118-23.864,9.745-40.895
		C187.898,245.406,176.354,236.377,164.989,236.377z"/>
</g>
<g>
	<path fill="#B24B04" d="M153.464,278.2c4.675,10.799,15.254,16.613,23.633,12.99c8.378-3.629,11.38-15.322,6.704-26.121
		c-4.675-10.8-15.256-16.614-23.631-12.988C151.791,255.707,148.79,267.4,153.464,278.2z"/>
	<path d="M171.83,293.306L171.83,293.306c-7.752,0-15.515-5.905-19.319-14.693c-2.352-5.435-2.918-11.265-1.596-16.421
		c1.349-5.25,4.488-9.18,8.84-11.065c1.785-0.771,3.697-1.163,5.683-1.163c7.749,0,15.512,5.905,19.315,14.692
		c4.896,11.305,1.644,23.638-7.244,27.488C175.726,292.914,173.815,293.306,171.83,293.306z M165.438,252.041
		c-1.701,0-3.334,0.333-4.857,0.993c-3.752,1.623-6.469,5.059-7.654,9.675c-1.208,4.71-0.68,10.066,1.491,15.078
		c3.479,8.039,10.477,13.442,17.411,13.442h0.001c1.698,0,3.332-0.335,4.854-0.992c7.837-3.396,10.603-14.501,6.163-24.755
		C179.367,257.441,172.371,252.041,165.438,252.041z"/>
</g>
<g>
	<path d="M160.096,276.591c2.741,6.333,8.846,9.782,13.636,7.712c4.791-2.076,6.451-8.889,3.71-15.22
		c-2.741-6.332-8.846-9.783-13.636-7.709C159.018,263.447,157.355,270.259,160.096,276.591z"/>
</g>
<g>
	<path fill="#72513A" d="M109.931,115.061c-90.3,2.756-104.597,48.114-109.113,74.254c-1.39,8.053,2.635,30.799-4.515,39.461
		c8.618-2.771,28.218-14.885,31.981-28.717c6.02,5.371,13.193,15.558,13.37,25.525c3.186-5.846,15.225-19.777,15.978-30.32
		c4.892,8.66,16.933,25.604,15.051,44.808c4.516-9.038,15.051-27.687,14.674-40.013c6.772,11.396,15.425,30.837,8.277,51.052
		c9.03-10.285,25.21-26.101,25.586-43.046c5.644,9.791,5.643,17.322,6.395,24.099c4.893-11.672,13.547-34.681,8.279-49.159
		c11.662,12.259,23.704,29.956,24.831,38.993c3.388-8.283,14.173-28.826,13.106-33.428c4.202,12.342,19.632,35.806,17.558,42.208
		c6.956-7.155,16.084-17.659,16.084-37.572C206.114,170.271,200.23,112.305,109.931,115.061z"/>
	<path fill="#876144" d="M109.931,115.061C19.589,115.173,5.333,163.174,0.818,189.315c-1.39,8.053,2.196,24.323-1.599,33.424
		c8.618-2.771,19.332-16.301,23.095-30.135c6.02,5.372,16.149,18.696,17.28,23.492c3.185-5.847,11.228-23.465,11.98-34.009
		c4.893,8.66,18.957,32.85,20.438,45.095c4.515-9.038,8.894-30.95,8.517-43.277c6.772,11.396,20.348,38.562,17.659,54.923
		c9.03-10.286,18.19-24.085,18.566-41.03c5.644,9.791,9.28,19.854,10.033,26.63c4.893-11.672,6.178-39.368,4.639-47.795
		c11.664,12.259,23.761,27.917,25.725,35.44c3.388-8.283,14.514-28.11,13.449-32.713c4.2,12.342,19,39.859,19.924,42.06
		c6.955-7.153,11.406-9.039,11.406-28.953C200.569,169.534,187.034,114.964,109.931,115.061z"/>
	<path d="M92.856,255.849l1.799-5.083c5.047-14.276,2.885-30.099-6.419-47.075c-1.161,10.636-8.013,23.961-12.716,33.106
		c-0.707,1.373-1.353,2.629-1.907,3.74l-2.51,5.025l0.548-5.591c1.61-16.443-7.386-31.513-12.761-40.518
		c-0.235-0.39-0.461-0.771-0.682-1.143c-1.698,7.333-7.366,15.51-11.644,21.682c-1.704,2.457-3.175,4.58-3.997,6.09l-1.88,3.451
		l-0.071-3.931c-0.153-8.655-5.875-17.865-11.835-23.662c-5.009,14.038-24.498,25.361-32.16,27.825l-3.376,1.085l2.258-2.737
		c4.63-5.608,4.314-17.784,4.06-27.568c-0.121-4.693-0.227-8.748,0.232-11.407c3.082-17.842,12.46-72.137,110.104-75.117
		c93.756-2.828,97.424,59.081,98.611,79.122c0.002,21.512-10.651,32.471-16.376,38.358l-3.106,3.195l1.374-4.24
		c1.138-3.513-4.374-14.249-9.236-23.721c-2.474-4.817-5.011-9.758-6.816-13.977c-1.294,4.725-4.591,12.012-8.584,20.595
		c-1.621,3.481-3.15,6.771-4.079,9.038l-1.501,3.67l-0.491-3.936c-1.021-8.185-11.547-23.882-21.7-35.3
		c1.991,10.693-1.167,26.044-9.422,45.739l-1.548,3.694l-0.442-3.981c-0.1-0.899-0.187-1.811-0.275-2.742
		c-0.49-5.173-1.039-10.95-4.351-17.853c-2.025,14.007-13.591,26.833-22.22,36.4c-1.176,1.305-2.295,2.545-3.321,3.714
		L92.856,255.849z M86.195,196.073l2.055,3.456c9.919,16.689,13.231,32.977,9.705,47.428c0.079-0.088,0.159-0.177,0.24-0.265
		c9.141-10.137,21.663-24.021,21.986-38.649l0.082-3.715l1.857,3.221c4.622,8.018,5.544,14.56,6.116,20.345
		c7.92-19.981,10.168-34.949,6.682-44.532l-1.702-4.676l3.431,3.605c10.23,10.752,21.343,26.398,24.39,36.367
		c0.811-1.809,1.782-3.897,2.844-6.18c3.835-8.239,9.303-20.655,8.938-23.672s-1.717-8.028-1.717-8.028s3.249,6.169,3.713,7.459
		c0.465,1.289,4.955,11.235,8.197,17.552c4.509,8.782,8.814,17.167,9.501,22.32c5.685-6.048,13.922-16.45,13.922-34.901
		c-1.157-19.489-4.752-79.901-96.474-77.106C23.959,118.724,7.066,159.243,1.841,189.492c-0.424,2.458-0.321,6.417-0.203,11
		c0.229,8.807,0.506,19.485-2.794,26.204c9.659-4.172,25.265-15.246,28.438-26.91l0.44-1.62l1.254,1.118
		c5.983,5.338,12.075,14.234,13.439,23.094c0.715-1.08,1.546-2.279,2.44-3.569c4.73-6.824,11.208-16.17,11.741-23.619l0.245-3.438
		l1.696,3.001c0.613,1.084,1.339,2.301,2.135,3.635c4.988,8.354,13.018,21.804,13.242,36.989
		c4.873-9.48,12.721-24.921,12.403-35.287L86.195,196.073z"/>
</g>
<g>
	
		<ellipse transform="matrix(0.9338 -0.3579 0.3579 0.9338 -134.3427 30.8496)" fill="#26150B" cx="16.172" cy="378.364" rx="19.216" ry="27.872"/>
	<path fill="#472E1E" d="M15.46,374.63c3.769-5.668,9.166-9.762,14.795-10.697c-6.335-9.641-16.042-14.668-24.059-11.596
		c-9.91,3.797-13.478,18.53-7.968,32.904c3.792,9.892,10.895,17.035,18.187,19.29C11.423,395.086,8.782,384.677,15.46,374.63z"/>
	<path d="M21.222,406.329c-9.434,0-19.289-8.521-23.963-20.717c-2.74-7.145-3.392-14.616-1.838-21.034
		c1.588-6.558,5.283-11.25,10.405-13.211c1.676-0.645,3.458-0.97,5.296-0.97c9.435,0,19.289,8.52,23.963,20.717
		c2.74,7.146,3.392,14.615,1.838,21.035c-1.588,6.556-5.283,11.248-10.405,13.21C24.842,406.004,23.06,406.329,21.222,406.329z
		 M11.122,352.475c-1.583,0-3.114,0.28-4.554,0.832c-4.464,1.71-7.706,5.887-9.128,11.76c-1.456,6.013-0.831,13.044,1.758,19.802
		c4.374,11.413,13.431,19.383,22.024,19.383c1.583,0,3.115-0.28,4.555-0.832c4.464-1.71,7.705-5.887,9.127-11.761
		c1.456-6.013,0.831-13.044-1.758-19.802C28.771,360.446,19.715,352.475,11.122,352.475z"/>
</g>
<g>
	
		<ellipse transform="matrix(0.9177 0.3972 -0.3972 0.9177 110.5035 4.2339)" fill="#B7B7B7" cx="45.032" cy="268.851" rx="26.227" ry="34.699"/>
	<path fill="#FFFEFD" d="M66.896,274.08c-6.578,14.606-20.034,24.648-35.836,19.975c-13.891-4.109-17.71-18.037-10.097-35.622
		c7.613-17.588,24.559-27.179,37.853-21.424C72.109,242.763,74.766,256.608,66.896,274.08z"/>
	<path d="M39.419,303.402c-3.005,0-5.893-0.59-8.584-1.754c-13.797-5.975-18.654-25.545-10.827-43.627
		c6.143-14.188,18.453-23.721,30.634-23.721c3.005,0,5.893,0.592,8.585,1.756c6.735,2.916,11.559,9.096,13.58,17.402
		c1.995,8.2,1.017,17.514-2.753,26.226C63.913,293.87,51.601,303.402,39.419,303.402z M50.643,236.377
		c-11.365,0-22.91,9.029-28.727,22.468c-7.374,17.031-3.001,35.378,9.745,40.895c2.428,1.051,5.04,1.585,7.758,1.585
		c11.366,0,22.91-9.029,28.728-22.468c3.593-8.298,4.531-17.146,2.641-24.909c-1.864-7.658-6.263-13.335-12.386-15.986
		C55.973,236.911,53.362,236.377,50.643,236.377z"/>
</g>
<g>
	<path fill="#B24B04" d="M62.167,278.2C57.492,289,46.912,294.813,38.535,291.19c-8.378-3.629-11.379-15.322-6.704-26.121
		c4.674-10.8,15.255-16.614,23.632-12.988C63.84,255.707,66.842,267.4,62.167,278.2z"/>
	<path d="M43.802,293.306c-1.985,0-3.896-0.392-5.68-1.163c-8.89-3.85-12.14-16.183-7.246-27.488
		c3.804-8.787,11.566-14.692,19.316-14.692c1.986,0,3.898,0.392,5.682,1.163c4.354,1.885,7.493,5.815,8.84,11.065
		c1.323,5.156,0.757,10.987-1.595,16.421C59.316,287.4,51.552,293.306,43.802,293.306z M50.193,252.041
		c-6.934,0-13.93,5.4-17.409,13.44c-4.439,10.254-1.675,21.359,6.164,24.755c1.521,0.656,3.154,0.992,4.854,0.992
		c6.934,0,13.932-5.403,17.411-13.442c2.17-5.011,2.699-10.367,1.49-15.078c-1.185-4.616-3.902-8.052-7.653-9.675
		C53.527,252.375,51.893,252.041,50.193,252.041z"/>
</g>
<g>
	<path d="M55.534,276.591c-2.741,6.333-8.845,9.782-13.635,7.712c-4.791-2.076-6.451-8.889-3.71-15.22
		c2.739-6.332,8.845-9.783,13.635-7.709C56.614,263.447,58.275,270.259,55.534,276.591z"/>
</g>
<g>
	<path d="M494.65,262.223c-22.812-20.467-30.962-37.487-31.069-37.72l1.883-0.879c0.146,0.314,15.208,31.688,62.127,60.393
		C527.591,284.017,509.825,275.356,494.65,262.223z"/>
</g>
<g>
	<path d="M441.615,712.805l-2.006-0.544c0.349-1.284,8.699-31.483,22.725-36.533l0.702,1.956
		C450.027,682.368,441.697,712.503,441.615,712.805z"/>
</g>
<g>
	<path d="M174.001,347.353c0,0,1.701-13.941,12.304-22.241c3.913-3.597,7.048-5.473,7.333-5.64l1.053,1.791
		C194.542,321.351,179.639,330.292,174.001,347.353z"/>
</g>
<g>
	<path d="M44.046,348.739c-5.647-17.09-20.54-26.002-20.689-26.092l1.052-1.789c0.288,0.168,3.51,2.095,7.5,5.793
		C43.005,336.987,44.046,348.739,44.046,348.739z"/>
</g>
<ellipse fill="#FFFEFD" cx="43.124" cy="265.254" rx="4.729" ry="4.562"/>
<ellipse fill="#FFFEFD" cx="162.231" cy="265.254" rx="4.729" ry="4.562"/>
<path fill="#936A4E" d="M105.329,123.27c0,0-72.544,1.298-83.015,42.847c6.149-4.415,20.234-7.011,21.891-12.984
	c2.435,11.166-2.499,28.305-7.173,35.835c11.166-9.868,24.151-29.863,23.631-35.576c6.232,6.752,8.05,5.713,5.973,26.488
	c4.155-3.376,14.282-19.476,11.945-27.526c11.685,13.504,23.47,26.747,21.992,46.743c4.755-10.647,15.142-39.731,9.689-49.599
	c11.685,5.193,16.879,10.127,23.89,19.216c-1.818-9.348-0.519-17.577-5.453-23.071c16.36,4.114,24.669,12.943,30.642,25.668
	c0.52-7.791,1.559-19.477-2.856-24.411c13.245,12.206,25.19,30.629,28.306,45.567C186.089,180.14,185.57,129.243,105.329,123.27z"/>
<path fill="#DBA886" d="M153.802,334.8c0,4.589-27.211,20.192-45.987,20.192s-46.113-16.991-46.113-21.58
	c0-4.589,27.274,10.277,46.051,10.277C126.529,343.689,153.802,330.21,153.802,334.8z"/>
</svg>
